<?xml version="1.0" encoding="UTF-8"?>
<svg version="1.1" xmlns="http://www.w3.org/2000/svg" width="800" height="800">
<path d="M0 0 C264 0 528 0 800 0 C800 264 800 528 800 800 C536 800 272 800 0 800 C0 536 0 272 0 0 Z " fill="#FEFEFE" transform="translate(0,0)"/>
<path d="M0 0 C0.89928223 0.00161133 1.79856445 0.00322266 2.72509766 0.00488281 C9.29929949 0.12172696 15.61272439 0.86247017 22.0625 2.125 C23.28223511 2.36017334 23.28223511 2.36017334 24.52661133 2.60009766 C29.76301644 3.73946775 33.62441996 5.58217511 38.1875 8.375 C38.99155273 8.68977295 39.79560547 9.0045459 40.62402344 9.32885742 C43.1573429 10.36269303 45.18875678 11.55994576 47.4453125 13.09765625 C48.2305127 13.63165039 49.01571289 14.16564453 49.82470703 14.71582031 C50.64567871 15.28397461 51.46665039 15.85212891 52.3125 16.4375 C53.16054199 17.02241211 54.00858398 17.60732422 54.88232422 18.20996094 C61.25454119 22.64481938 67.38848001 27.20108166 73.1875 32.375 C73.99574219 33.08914062 74.80398438 33.80328125 75.63671875 34.5390625 C80.62049979 39.20157501 83.90895734 43.85588613 86.8984375 49.9921875 C88.02122395 52.3642661 88.02122395 52.3642661 89.671875 53.77734375 C93.67071015 57.9926107 95.19791419 64.94345603 97.1875 70.375 C97.42823242 71.02227051 97.66896484 71.66954102 97.91699219 72.33642578 C103.65141642 88.04011055 104.34773997 103.70239338 104.625 120.3125 C104.65956299 121.54000977 104.69412598 122.76751953 104.72973633 124.03222656 C104.73513428 125.18561523 104.74053223 126.33900391 104.74609375 127.52734375 C104.75954834 128.55851318 104.77300293 129.58968262 104.78686523 130.65209961 C104.1875 133.375 104.1875 133.375 101.87133789 135.71704102 C98.37750298 137.87538113 96.23520848 137.80868305 92.1875 137.375 C87.41211102 136.23800262 84.81068266 133.37446218 82.1875 129.375 C80.73558767 126.09540277 79.64253339 122.73010567 78.5625 119.3125 C76.82856336 113.95057432 75.18246969 109.17658679 72.1875 104.375 C71.24796157 101.94439467 70.3583201 99.52077209 69.5 97.0625 C67.34620881 91.11360408 64.89874585 85.40590546 62.0625 79.75 C61.73805908 79.09990967 61.41361816 78.44981934 61.0793457 77.7800293 C59.52278427 74.73602551 57.88376172 71.8572301 55.9453125 69.0390625 C54.1875 66.375 54.1875 66.375 54.1875 64.375 C53.5275 64.375 52.8675 64.375 52.1875 64.375 C51.548125 63.281875 50.90875 62.18875 50.25 61.0625 C42.85997698 48.72380085 31.16753885 40.39429287 17.36279297 36.81884766 C6.32215431 34.56611128 -4.53811087 35.90316497 -14.8125 40.375 C-15.5859375 40.67535156 -16.359375 40.97570312 -17.15625 41.28515625 C-28.04123943 45.71197413 -36.83098767 52.69406599 -45.19726562 60.81103516 C-46.88401798 62.44424791 -48.59044628 64.05534647 -50.296875 65.66796875 C-58.53836943 73.56808617 -65.36901683 81.96784757 -71.8125 91.375 C-72.46476562 92.30054688 -73.11703125 93.22609375 -73.7890625 94.1796875 C-76.14399972 97.58374368 -77.99405971 100.27370477 -78.8125 104.375 C-79.4725 104.375 -80.1325 104.375 -80.8125 104.375 C-80.895 105.035 -80.9775 105.695 -81.0625 106.375 C-81.89799686 109.71698743 -83.24904695 112.39138312 -84.875 115.41015625 C-85.81801426 117.38655698 -86.35576718 119.23882253 -86.8125 121.375 C-87.4725 121.375 -88.1325 121.375 -88.8125 121.375 C-89.1528125 122.98375 -89.1528125 122.98375 -89.5 124.625 C-90.69873001 129.48028774 -92.6668258 133.93473615 -94.63671875 138.51953125 C-95.97686359 141.77416871 -96.96002844 144.96511376 -97.8125 148.375 C-98.4725 148.375 -99.1325 148.375 -99.8125 148.375 C-100.18375 149.7053125 -100.18375 149.7053125 -100.5625 151.0625 C-100.97866084 152.50014652 -101.39542381 153.93761877 -101.8125 155.375 C-102.23208984 156.86386719 -102.23208984 156.86386719 -102.66015625 158.3828125 C-104.18426914 163.60305342 -105.73723668 168.5106244 -108.3125 173.3125 C-111.49673035 179.37030409 -113.10818352 185.78017246 -114.8125 192.375 C-115.43243927 194.74973447 -116.05355176 197.12415556 -116.67578125 199.49829102 C-117.08349976 201.06022185 -117.48749786 202.6231315 -117.88671875 204.18725586 C-119.04469951 208.67200264 -120.32778364 213.10023421 -121.703125 217.5234375 C-123.7567608 224.12901089 -125.64812931 230.77348717 -127.50491333 237.43676758 C-128.47233521 240.90807066 -129.44534573 244.37780755 -130.41796875 247.84765625 C-130.61531113 248.55209869 -130.8126535 249.25654114 -131.01597595 249.98233032 C-134.23439071 261.45990221 -137.52611805 272.91674384 -140.8125 284.375 C-141.4725 284.375 -142.1325 284.375 -142.8125 284.375 C-143.1528125 285.8909375 -143.1528125 285.8909375 -143.5 287.4375 C-144.57025167 291.70321737 -145.88424784 295.88379726 -147.25 300.0625 C-147.45520264 300.70388916 -147.66040527 301.34527832 -147.87182617 302.00610352 C-149.13318263 305.80595836 -150.72170345 308.97946084 -152.8125 312.375 C-153.832115 314.69982896 -154.83124732 317.03372094 -155.8125 319.375 C-169.05681412 347.9566416 -188.94074084 373.78994484 -219.1796875 385.12109375 C-220.37851562 385.53488281 -221.57734375 385.94867187 -222.8125 386.375 C-223.49868408 386.64280273 -224.18486816 386.91060547 -224.8918457 387.18652344 C-230.76402373 389.37555638 -236.01229283 389.83213513 -242.25 389.75 C-243.12720703 389.76160156 -244.00441406 389.77320313 -244.90820312 389.78515625 C-255.1073727 389.74006044 -263.17987093 386.56946128 -271.8125 381.375 C-272.58078125 380.95605469 -273.3490625 380.53710938 -274.140625 380.10546875 C-296.56573564 367.5546407 -310.24873959 346.16021862 -320.8125 323.375 C-321.17988281 322.60542969 -321.54726563 321.83585937 -321.92578125 321.04296875 C-327.6140134 308.1511067 -329.82672931 293.12802381 -330.125 279.125 C-330.16238281 277.96484375 -330.19976562 276.8046875 -330.23828125 275.609375 C-329.70022881 271.52215093 -329.00770215 270.00605687 -325.8125 267.375 C-322.66791175 266.6711186 -319.64679956 266.72199384 -316.4375 266.8125 C-315.59960938 266.80154297 -314.76171875 266.79058594 -313.8984375 266.77929688 C-308.39910766 266.84414746 -305.11523846 267.67515262 -300.8125 271.375 C-297.21288473 275.06105543 -296.1463708 278.02816589 -295.25 283.0625 C-293.68932398 291.13583485 -291.5286409 298.78166753 -288.55859375 306.4453125 C-288.05550678 307.74649032 -287.56881851 309.05411235 -287.09765625 310.3671875 C-285.55129342 314.66356854 -283.72687605 318.67830796 -281.58203125 322.7109375 C-280.8125 324.375 -280.8125 324.375 -280.8125 326.375 C-280.1525 326.375 -279.4925 326.375 -278.8125 326.375 C-277.33203125 328.28125 -277.33203125 328.28125 -275.625 330.875 C-270.27397306 338.69147944 -265.27693125 344.91251373 -256.8125 349.375 C-256.13574219 349.76816406 -255.45898438 350.16132812 -254.76171875 350.56640625 C-247.71314361 354.26465317 -240.34392434 354.37629474 -232.58984375 352.97265625 C-217.94237624 348.37088514 -205.75658021 333.83667763 -197.8125 321.375 C-196.90177734 319.97701172 -196.90177734 319.97701172 -195.97265625 318.55078125 C-189.62676282 308.8644447 -189.62676282 308.8644447 -184.8125 298.375 C-184.1525 298.375 -183.4925 298.375 -182.8125 298.375 C-182.69519531 297.70984375 -182.57789063 297.0446875 -182.45703125 296.359375 C-181.67009266 292.71561085 -180.60778086 289.18067352 -179.5 285.625 C-179.29955078 284.95984375 -179.09910156 284.2946875 -178.89257812 283.609375 C-177.76030211 279.96365655 -176.45827371 276.53340646 -174.83203125 273.078125 C-172.44552467 267.84727155 -171.1461141 262.45126556 -169.8125 256.875 C-167.19574488 245.93351293 -167.19574488 245.93351293 -164.83984375 241.09765625 C-162.18099235 235.44522869 -161.07875441 229.44826358 -159.8053894 223.36218262 C-159.07538084 219.88559643 -158.30905381 216.41713809 -157.5390625 212.94921875 C-157.38982834 212.27674103 -157.24059418 211.60426331 -157.08683777 210.91140747 C-155.43440324 203.55540858 -153.23176319 196.51029524 -150.8125 189.375 C-150.11146994 187.16500788 -149.42340429 184.95120041 -148.7355957 182.73706055 C-146.0886845 174.2376029 -143.33949839 165.77020952 -140.5625 157.3125 C-140.22114014 156.25869141 -139.87978027 155.20488281 -139.52807617 154.11914062 C-139.04238159 152.65057617 -139.04238159 152.65057617 -138.546875 151.15234375 C-138.26038086 150.27827881 -137.97388672 149.40421387 -137.67871094 148.50366211 C-136.8125 146.375 -136.8125 146.375 -134.8125 144.375 C-134.3417713 142.72744954 -133.87559006 141.07840303 -133.4375 139.421875 C-132.51660073 136.40592988 -131.18983817 133.61170662 -129.875 130.75 C-128.81444978 128.37935833 -127.8696785 125.9861641 -126.9375 123.5625 C-123.32874134 114.49145684 -118.79906979 106.17434248 -113.4609375 98.015625 C-111.92768881 95.55952047 -110.62827342 93.10748162 -109.375 90.5 C-98.05054771 67.15250907 -80.82039081 42.89357405 -60.8125 26.375 C-59.60013672 25.31345703 -59.60013672 25.31345703 -58.36328125 24.23046875 C-48.3396477 15.64087329 -32.76020824 4.375 -18.8125 4.375 C-18.8125 3.715 -18.8125 3.055 -18.8125 2.375 C-12.48913126 0.72261466 -6.53100512 -0.012414 0 0 Z " fill="#343434" transform="translate(515.8125,215.625)"/>
<path d="M0 0 C264 0 528 0 800 0 C800 1.98 800 3.96 800 6 C536 6 272 6 0 6 C0 4.02 0 2.04 0 0 Z " fill="#E6E5E5" transform="translate(0,0)"/>
</svg>
