<?xml version="1.0" encoding="UTF-8"?>
<svg version="1.1" xmlns="http://www.w3.org/2000/svg" width="1536" height="1024">
<path d="M0 0 C506.88 0 1013.76 0 1536 0 C1536 337.92 1536 675.84 1536 1024 C1029.12 1024 522.24 1024 0 1024 C0 686.08 0 348.16 0 0 Z " fill="#FEFEFE" transform="translate(0,0)"/>
<path d="M0 0 C1.02867187 -0.01224609 2.05734375 -0.02449219 3.1171875 -0.03710938 C8.39328269 -0.04730801 12.68531405 0.14889945 17.625 2.1875 C18.72714844 2.50847656 19.82929687 2.82945312 20.96484375 3.16015625 C45.19101179 10.499028 67.43694107 27.98486009 79.625 50.1875 C84.10488202 59.15721933 87.26628367 68.4524344 89.625 78.1875 C89.89207764 79.20275757 89.89207764 79.20275757 90.16455078 80.23852539 C91.93416479 87.72736109 91.99728397 95.2247566 91.99560547 102.8762207 C92.00003991 105.1454247 92.03664419 107.4127714 92.07421875 109.68164062 C92.08007742 111.13020175 92.08405316 112.578772 92.0859375 114.02734375 C92.09415527 115.33050537 92.10237305 116.63366699 92.11083984 117.97631836 C91.625 121.1875 91.625 121.1875 89.80712891 123.11157227 C86.57556886 124.70493601 84.18462974 124.55573756 80.625 124.1875 C76.34423971 122.54105373 74.04214592 121.04020974 71.625 117.1875 C70.36897978 114.23313512 69.31146498 111.21629215 68.25 108.1875 C67.62535263 106.45513163 66.99905443 104.7233576 66.37109375 102.9921875 C66.06929199 102.1578418 65.76749023 101.32349609 65.45654297 100.46386719 C63.68777113 95.62181534 61.72238056 90.89556741 59.625 86.1875 C59.29693359 85.43774902 58.96886719 84.68799805 58.63085938 83.91552734 C49.95342264 64.23932557 39.63320392 43.66630125 18.625 35.1875 C7.2651783 30.84804811 -7.29888527 32.35958791 -18.30957031 37.00341797 C-44.41061113 49.26846058 -67.87411741 76.16012499 -78.6953125 102.68359375 C-80.45564665 106.96288612 -82.23758847 111.23051987 -84.05859375 115.484375 C-90.50536933 130.52606213 -90.50536933 130.52606213 -96.38305664 145.79541016 C-97.44110463 148.71603559 -98.54710904 151.58368451 -99.78515625 154.43359375 C-104.61622185 165.57725174 -107.45046916 177.2308599 -110.484375 188.953125 C-111.94829276 194.60717863 -113.49926758 200.22166874 -115.1875 205.8125 C-116.5825393 210.4326119 -117.86880333 215.05698407 -119 219.75 C-119.94125626 223.63596858 -121.09566539 227.2593284 -122.5703125 230.96875 C-123.59583077 233.79639262 -124.38314898 236.6641773 -125.1875 239.5625 C-128.79459643 252.39385064 -132.97582429 264.99256179 -138.375 277.1875 C-139.04056278 278.7381962 -139.70590861 280.28898552 -140.37109375 281.83984375 C-146.74888157 296.54089844 -153.83882646 309.9909567 -164.375 322.1875 C-165.03757812 323.00605469 -165.70015625 323.82460938 -166.3828125 324.66796875 C-175.57643952 335.60872415 -188.2758076 344.42154546 -201.875 348.875 C-203.74671875 349.49955078 -203.74671875 349.49955078 -205.65625 350.13671875 C-220.58973142 354.35636844 -234.8412286 353.00950733 -248.4140625 345.5078125 C-251.13878593 343.81893434 -253.76319821 342.04533668 -256.375 340.1875 C-257.06980469 339.71570313 -257.76460938 339.24390625 -258.48046875 338.7578125 C-280.87881478 322.93143626 -294.53902801 295.73986936 -300.1875 269.3984375 C-303.37321825 249.44345235 -303.37321825 249.44345235 -299.94140625 243.8515625 C-296.0511175 241.32909217 -292.47664724 241.60490748 -287.9375 241.6875 C-286.6680957 241.66429687 -286.6680957 241.66429687 -285.37304688 241.640625 C-281.35734205 241.66578212 -278.94435845 241.85925509 -275.4140625 243.89453125 C-273.2174542 246.36466358 -272.22089564 248.24773721 -271.1875 251.375 C-270.86394531 252.35082031 -270.54039062 253.32664062 -270.20703125 254.33203125 C-269.29586758 257.45907653 -268.57950955 260.58328055 -267.9140625 263.76953125 C-263.44172974 283.83021227 -253.42170093 303.85771582 -236.14453125 315.71875 C-229.14628669 319.82864893 -222.33353967 320.4826799 -214.375 319.1875 C-196.89391864 313.5508986 -184.35040021 297.7185551 -176.08203125 281.91796875 C-174.70032171 279.19262344 -173.37126839 276.4464181 -172.06640625 273.68359375 C-170.375 270.1875 -170.375 270.1875 -168.90673828 267.85253906 C-167.25068114 264.97120024 -166.2190287 262.20485729 -165.17578125 259.05078125 C-164.77528564 257.84719971 -164.37479004 256.64361816 -163.9621582 255.40356445 C-163.53679497 254.10253221 -163.11192113 252.80133988 -162.6875 251.5 C-162.24255465 250.14733909 -161.79748458 248.7947192 -161.35229492 247.44213867 C-160.01341903 243.36146558 -158.69123925 239.275524 -157.375 235.1875 C-157.00117188 234.02734375 -156.62734375 232.8671875 -156.2421875 231.671875 C-152.0024238 218.41868774 -148.23254249 205.09855738 -144.81225586 191.61108398 C-142.94562174 184.2763036 -140.88432014 177.06152662 -138.55078125 169.86328125 C-137.49297513 166.55631926 -136.51093351 163.24013567 -135.55493164 159.90307617 C-131.3254586 145.15427319 -126.68147554 129.925742 -119.40234375 116.3671875 C-118.23964198 113.99926735 -118.23964198 113.99926735 -117.13671875 110.6328125 C-115.11341006 105.15604499 -112.16719319 100.22796672 -109.25 95.1875 C-108.06988708 93.13045234 -106.89020077 91.07315987 -105.7109375 89.015625 C-105.13698242 88.01724609 -104.56302734 87.01886719 -103.97167969 85.99023438 C-102.61315263 83.60554163 -101.28329265 81.21017472 -99.9765625 78.796875 C-91.22257076 62.65876807 -80.84706978 47.67545417 -68.375 34.1875 C-67.54484375 33.28644531 -66.7146875 32.38539063 -65.859375 31.45703125 C-51.88180972 16.91585447 -35.04263398 6.08255557 -15.375 1.1875 C-14.76809326 1.0124292 -14.16118652 0.8373584 -13.53588867 0.65698242 C-9.10900863 -0.30481741 -4.51118231 0.00280546 0 0 Z " fill="#343433" transform="translate(564.375,302.8125)"/>
<path d="M0 0 C5.28 0 10.56 0 16 0 C16 36.96 16 73.92 16 112 C11.05 112 6.1 112 1 112 C-0.96822886 110.03177114 -0.66248381 106.65191291 -1 104 C-1.4846875 104.39832031 -1.969375 104.79664063 -2.46875 105.20703125 C-10.3431696 111.43085136 -16.59992393 113.68797899 -26.75390625 113.40625 C-34.74747501 112.4058515 -40.81575418 108.09825567 -46.2421875 102.3203125 C-52.92090834 93.50440099 -54.1957158 84.61112991 -54.25 73.9375 C-54.2809375 72.45733398 -54.2809375 72.45733398 -54.3125 70.94726562 C-54.37572664 58.87888108 -51.53215902 48.82424743 -43.078125 39.9921875 C-36.76659442 34.14545956 -30.70621616 31.47489282 -22 31.625 C-21.32710937 31.61339844 -20.65421875 31.60179687 -19.9609375 31.58984375 C-13.05843803 31.62981962 -7.67133393 34.1635094 -2 38 C-1.67 38.66 -1.34 39.32 -1 40 C-0.67 26.8 -0.34 13.6 0 0 Z " fill="#373737" transform="translate(821,469)"/>
<path d="M0 0 C8.06632209 5.71817442 12.84316216 13.38032845 14.8984375 23.0546875 C15.12186679 26.78088721 15.08358574 30.50994465 15.0859375 34.2421875 C15.09818359 35.24572266 15.11042969 36.24925781 15.12304688 37.28320312 C15.14752742 49.82540074 12.61519599 57.76776939 4.01171875 67.1015625 C-3.93779816 74.64795989 -12.14726573 76.65697951 -22.84130859 76.52758789 C-33.29742977 76.09821902 -41.53877335 71.79775223 -48.7890625 64.3125 C-57.27335227 54.08893083 -59.10255126 39.91024315 -58.1015625 27.0546875 C-56.43016194 18.24459417 -53.293372 11.53509829 -47.1015625 5.0546875 C-46.555 4.47976563 -46.0084375 3.90484375 -45.4453125 3.3125 C-33.15450637 -8.34057563 -14.07111857 -8.16715273 0 0 Z " fill="#373736" transform="translate(662.1015625,505.9453125)"/>
<path d="M0 0 C4.43065503 3.83405198 8.56621579 8.94062537 9.97265625 14.70703125 C10.11605399 17.72862641 10.06307736 20.67792405 9.97265625 23.70703125 C5.02265625 23.70703125 0.07265625 23.70703125 -5.02734375 23.70703125 C-5.58421875 22.32515625 -6.14109375 20.94328125 -6.71484375 19.51953125 C-8.99049378 14.44123856 -11.38671313 10.80117249 -16.6953125 8.6015625 C-20.49001424 7.58282077 -24.06231761 7.32284776 -27.96484375 7.33203125 C-28.67342529 7.33364258 -29.38200684 7.33525391 -30.11206055 7.33691406 C-35.65349953 7.46767792 -38.80169563 8.16927934 -43.02734375 11.70703125 C-46.45810514 15.52894834 -46.49729336 18.33182997 -46.29296875 23.30859375 C-45.91630335 26.7096607 -45.44396462 28.21933329 -43.02734375 30.70703125 C-36.9373137 34.84365543 -30.21238511 36.53754418 -23.1418457 38.19213867 C-9.94417447 41.32318313 2.10630061 46.10791449 9.97265625 57.70703125 C13.39771679 64.51023369 12.95228691 73.31922446 11.3203125 80.62890625 C8.02598258 89.7342645 2.3544854 95.56478895 -6.3046875 99.69921875 C-12.66033748 102.05181229 -18.48437463 103.07431414 -25.21484375 103.01953125 C-25.95025391 103.0138916 -26.68566406 103.00825195 -27.44335938 103.00244141 C-39.62333796 102.73570727 -49.31716716 100.0752129 -58.25 91.59765625 C-63.61242787 85.95299533 -67.13519573 80.63997421 -67.21484375 72.70703125 C-67.12203125 71.22203125 -67.12203125 71.22203125 -67.02734375 69.70703125 C-63.60501403 68.56625468 -60.94061158 68.60888008 -57.33984375 68.64453125 C-56.16035156 68.65355469 -54.98085938 68.66257812 -53.765625 68.671875 C-52.41017578 68.68927734 -52.41017578 68.68927734 -51.02734375 68.70703125 C-50.86878906 69.28710938 -50.71023438 69.8671875 -50.546875 70.46484375 C-48.72173372 76.57553777 -46.66160853 81.21961335 -41.1953125 84.9609375 C-33.21860496 89.20827528 -23.43163152 89.0045578 -14.90234375 86.45703125 C-11.54787532 85.13519611 -9.22817678 83.64147529 -7.02734375 80.70703125 C-5.3016872 75.5300616 -5.153991 69.93893272 -7.15234375 64.83203125 C-13.46166692 57.68146499 -22.97545818 55.36666183 -31.96484375 53.26953125 C-42.3792413 50.75710849 -54.49421512 46.90797467 -60.40234375 37.26953125 C-64.13487824 29.08666718 -65.74730262 20.37364024 -63.02734375 11.58203125 C-59.5107121 3.61645166 -53.31079248 -1.91596704 -45.44140625 -5.36328125 C-30.2385486 -11.21810345 -13.34772844 -9.56869825 0 0 Z " fill="#373736" transform="translate(1047.02734375,479.29296875)"/>
<path d="M0 0 C1.05574219 -0.020625 2.11148438 -0.04125 3.19921875 -0.0625 C15.3672575 -0.12281246 24.4404282 3.44730757 33.1875 12 C37.45070926 18.3339109 39.375 23.57977502 39.375 31.25 C34.095 31.25 28.815 31.25 23.375 31.25 C22.818125 29.868125 22.26125 28.48625 21.6875 27.0625 C19.51689482 22.20156726 17.08900898 18.64662506 12.234375 16.1484375 C5.50406113 14.03372139 -3.7417163 13.85158759 -10.4453125 16.265625 C-13.75103215 18.29053076 -15.45383296 19.99324944 -17.625 23.25 C-18.20436995 27.6893282 -18.0980972 31.88984556 -16.625 36.125 C-11.56509577 41.50114824 -3.84129479 43.25824406 3.0625 45.1875 C31.23470248 53.45593532 31.23470248 53.45593532 39 65.875 C42.04819412 73.08376239 41.37433676 82.68955806 39.375 90.125 C36.09689517 98.20590958 29.87226852 103.58664165 22.16015625 107.27734375 C9.15867976 111.81783133 -7.01692253 112.7616537 -19.71875 107 C-27.14003727 102.53126788 -34.45002299 96.47607679 -37.625 88.25 C-38.19277135 84.5843885 -38.49098654 80.95547223 -38.625 77.25 C-35.20267028 76.10922343 -32.53826783 76.15184883 -28.9375 76.1875 C-27.75800781 76.19652344 -26.57851563 76.20554687 -25.36328125 76.21484375 C-24.00783203 76.23224609 -24.00783203 76.23224609 -22.625 76.25 C-22.36976563 77.13751953 -22.36976563 77.13751953 -22.109375 78.04296875 C-19.98577588 84.96725738 -17.73010054 89.24092363 -11.375 93.0625 C-4.08022597 96.48260177 5.43458155 96.89445357 13.109375 94.33984375 C15.46385709 93.18525181 15.46385709 93.18525181 18.375 91.25 C19.035 91.25 19.695 91.25 20.375 91.25 C23.00046808 84.77384541 24.4235638 79.26949456 22.625 72.375 C21.1176938 69.81257947 20.10210032 69.34084013 17.375 68.25 C16.39660156 67.569375 16.39660156 67.569375 15.3984375 66.875 C11.07455169 64.55105104 6.55335695 63.56976279 1.8125 62.375 C-11.97917133 58.71545678 -24.36504751 55.31236938 -33.1328125 43.16015625 C-36.94592788 36.00056548 -37.03921947 27.04661534 -34.77734375 19.375 C-30.74468336 10.4074569 -23.55711597 4.93375515 -14.625 1.25 C-9.85066718 -0.34144427 -5.00035245 0.02389655 0 0 Z " fill="#363635" transform="translate(556.625,471.75)"/>
<path d="M0 0 C1.27617188 -0.01740234 1.27617188 -0.01740234 2.578125 -0.03515625 C10.49690064 0.00127983 16.79827174 1.72013147 22.8125 7.0625 C23.54082031 7.68511719 24.26914063 8.30773437 25.01953125 8.94921875 C30.29158103 15.40669984 30.45052618 22.51604885 30.4765625 30.48828125 C30.49214203 31.53847946 30.50772156 32.58867767 30.52377319 33.67070007 C30.57102923 37.00962579 30.59893738 40.34834763 30.625 43.6875 C30.66173665 47.01579193 30.70262602 50.34397489 30.74765015 53.67216492 C30.77443008 55.73574933 30.79596692 57.79941136 30.81118774 59.8631134 C30.88159564 66.41094403 31.31245184 72.86324879 32 79.375 C29.52076199 79.40185095 27.0418116 79.42176547 24.5625 79.4375 C23.85544922 79.44587891 23.14839844 79.45425781 22.41992188 79.46289062 C20.61306441 79.47153588 18.80612397 79.42720011 17 79.375 C16 78.375 16 78.375 15.9375 74.8125 C15.958125 73.678125 15.97875 72.54375 16 71.375 C15.34 71.375 14.68 71.375 14 71.375 C14 72.035 14 72.695 14 73.375 C7.04364879 80.10695279 -0.5801858 82.00749649 -10.04174805 81.91748047 C-17.93158202 81.56227522 -23.65707261 78.73191968 -29.4375 73.5 C-34.35479879 67.99764017 -35.58100753 62.30252061 -35.34375 55.0859375 C-34.50893864 48.50231152 -31.27477608 43.78179028 -26.13671875 39.69140625 C-22.05448417 37.17639153 -17.55623659 35.78975499 -13 34.375 C-11.515 33.88 -11.515 33.88 -10 33.375 C-8.15389468 33.29260831 -6.30494836 33.26756641 -4.45703125 33.27734375 C-3.38388672 33.28056641 -2.31074219 33.28378906 -1.20507812 33.28710938 C-0.08552734 33.29548828 1.03402344 33.30386719 2.1875 33.3125 C3.88422852 33.31926758 3.88422852 33.31926758 5.61523438 33.32617188 C8.41020927 33.33796502 11.2050782 33.3544235 14 33.375 C14.32290363 24.59318456 14.32290363 24.59318456 10.625 17.125 C5.17724608 13.49316405 -0.6565461 13.77925235 -7 14.375 C-12.60872885 16.93336755 -13.08994857 18.55489713 -16 24.375 C-20.95 24.375 -25.9 24.375 -31 24.375 C-30.56870526 17.25863677 -29.76219228 12.77849102 -24.23828125 7.78125 C-16.62930358 1.68210877 -9.57196048 -0.13052673 0 0 Z " fill="#363635" transform="translate(1102,500.625)"/>
<path d="M0 0 C0.83418457 0.00354492 1.66836914 0.00708984 2.52783203 0.01074219 C9.19645823 0.1902371 14.14881876 1.55898254 19.625 5.5 C20.98625 6.36625 20.98625 6.36625 22.375 7.25 C28.13168203 13.00668203 31.86701829 19.58908231 33.625 27.5 C33.625 33.44 33.625 39.38 33.625 45.5 C16.135 45.5 -1.355 45.5 -19.375 45.5 C-17.42022738 56.77888305 -17.42022738 56.77888305 -10.375 64.875 C-4.49713843 68.05884169 1.35331936 68.33395781 7.8125 66.6875 C13.41673788 64.4462758 13.41673788 64.4462758 16.9375 59.8125 C17.494375 59.049375 18.05125 58.28625 18.625 57.5 C23.30322447 56.80977016 26.16153834 56.87338289 30.125 59.5 C30.95 60.16 31.775 60.82 32.625 61.5 C30.79466234 68.00786723 25.73080959 73.54134987 19.9375 76.875 C18.844375 77.41125 17.75125 77.9475 16.625 78.5 C15.6040625 79.0878125 15.6040625 79.0878125 14.5625 79.6875 C6.45111694 83.08904773 -5.4805009 82.9238943 -13.6875 80.0625 C-21.97101751 76.17657609 -29.82706984 68.8929884 -33.234375 60.34375 C-37.55349975 48.11981202 -38.3587956 34.30490851 -33.62890625 22.109375 C-29.5739244 13.67097041 -22.42577749 5.46403992 -13.671875 1.80078125 C-9.11726675 0.2183019 -4.79274009 -0.03671117 0 0 Z " fill="#373737" transform="translate(1249.375,500.5)"/>
<path d="M0 0 C1.18203003 0.00858032 1.18203003 0.00858032 2.38793945 0.01733398 C11.18596461 0.28388641 18.6744897 2.7224489 25.25 8.75 C35.20697158 19.9940923 35.3125 30.55244531 35.3125 45.5 C17.4925 45.5 -0.3275 45.5 -18.6875 45.5 C-16.83359373 54.76953136 -15.93985443 59.05183381 -9.0546875 64.8828125 C-3.64323375 68.48205848 1.56798713 68.19319908 7.67578125 67.0625 C12.1482468 65.85982019 14.61041507 64.51695611 17.4375 60.8125 C19.68550473 57.88139991 19.94925212 57.57135226 23.8125 56.8125 C27.79454988 57.59468837 30.13430376 59.01945659 33.3125 61.5 C32.2312211 67.08039342 28.80750927 71.49370388 24.41796875 75.0234375 C22.43094164 76.31676876 20.42841021 77.4319306 18.3125 78.5 C17.136875 79.098125 15.96125 79.69625 14.75 80.3125 C5.59137438 83.47376131 -5.933322 82.47780205 -14.6875 78.5 C-22.33130118 74.55807278 -28.61492487 68.89479114 -31.75 60.734375 C-32.26804358 58.99095911 -32.74884792 57.23573765 -33.1796875 55.46875 C-33.50675602 53.51138119 -33.50675602 53.51138119 -34.6875 52.5 C-35.51140767 36.95666498 -34.9470636 23.07687816 -24.6875 10.5 C-17.49768854 3.55154263 -10.02269967 -0.08476536 0 0 Z " fill="#373736" transform="translate(883.6875,500.5)"/>
<path d="M0 0 C1.00317261 -0.00942627 1.00317261 -0.00942627 2.02661133 -0.01904297 C9.7440913 0.17686595 15.37097491 3.11828658 20.875 8.5 C24.80679407 14.07212854 26.00264461 18.74116613 25.98852539 25.46191406 C25.98841209 27.26332855 25.98841209 27.26332855 25.98829651 29.10113525 C25.98313522 30.39291687 25.97797394 31.68469849 25.97265625 33.015625 C25.97079017 34.35512235 25.96936716 35.69462038 25.96836853 37.03411865 C25.96455835 40.55222472 25.95474091 44.07028921 25.94366455 47.58837891 C25.93341817 51.18130939 25.928864 54.77424661 25.92382812 58.3671875 C25.91311725 65.41147692 25.89553262 72.45573137 25.875 79.5 C20.595 79.5 15.315 79.5 9.875 79.5 C9.8656543 77.83501465 9.85630859 76.1700293 9.84667969 74.45458984 C9.80677467 68.27072504 9.74101292 62.08735745 9.66748047 55.90380859 C9.63707056 53.22854791 9.61805956 50.55389447 9.60400391 47.87841797 C9.58257097 44.03049079 9.53591483 40.18356476 9.484375 36.3359375 C9.48314636 35.14197357 9.48191772 33.94800964 9.48065186 32.71786499 C9.36940588 26.39519617 9.226133 22.26108876 4.875 17.5 C0.82621148 14.73439052 -3.39675455 15.00310721 -8.125 15.5 C-12.52299875 16.48935648 -15.39224555 17.74845697 -18.5625 21 C-20.87768115 24.70428984 -21.26048352 27.51748995 -21.33032227 31.79760742 C-21.35026749 32.87850143 -21.37021271 33.95939545 -21.39076233 35.07304382 C-21.41583107 36.82159416 -21.41583107 36.82159416 -21.44140625 38.60546875 C-21.46218735 39.79981033 -21.48296844 40.99415192 -21.50437927 42.22468567 C-21.56984276 46.04556443 -21.6287451 49.86651276 -21.6875 53.6875 C-21.73068824 56.27539786 -21.77430263 58.86328865 -21.81835938 61.45117188 C-21.92552095 67.80070968 -22.02679764 74.15031756 -22.125 80.5 C-27.405 80.5 -32.685 80.5 -38.125 80.5 C-38.125 54.76 -38.125 29.02 -38.125 2.5 C-33.175 2.5 -28.225 2.5 -23.125 2.5 C-22.795 5.47 -22.465 8.44 -22.125 11.5 C-21.485625 10.613125 -20.84625 9.72625 -20.1875 8.8125 C-14.50253014 2.20097428 -8.67697926 0.06188574 0 0 Z " fill="#363636" transform="translate(728.125,500.5)"/>
<path d="M0 0 C5.94 0 11.88 0 18 0 C18.7425 2.59875 19.485 5.1975 20.25 7.875 C21.62348934 12.60897478 22.99299822 17.27532917 24.9375 21.8125 C27.39963611 27.60752766 29.05795509 33.65508363 30.80639648 39.69458008 C31.96462382 43.66902651 33.17705897 47.56760158 34.671875 51.4296875 C35.86584603 54.63936257 36.31512865 56.63862779 36 60 C36.66 60 37.32 60 38 60 C37.938125 59.195625 37.87625 58.39125 37.8125 57.5625 C37.97421051 54.49000031 38.34644661 52.63588975 39.3359375 49.8046875 C39.60929932 49.01167236 39.88266113 48.21865723 40.16430664 47.40161133 C40.57797485 46.21281372 40.57797485 46.21281372 41 45 C41.46714765 43.60623883 41.9320725 42.21173024 42.39453125 40.81640625 C46.9296875 27.2109375 51.46484375 13.60546875 56 0 C61.61 0 67.22 0 73 0 C70.13110246 9.75425164 67.27456558 19.42846733 62.99609375 28.66796875 C61.8541168 31.34153831 60.9559237 34.04611576 60.0625 36.8125 C58.77109778 40.80183167 57.34890143 44.65054375 55.6875 48.5 C51.57806234 58.11429184 48.3050109 68.0849673 45 78 C39.39 78 33.78 78 28 78 C27.54109375 76.58847656 27.0821875 75.17695312 26.609375 73.72265625 C25.98982893 71.83585684 25.37002339 69.94914261 24.75 68.0625 C24.44964844 67.13630859 24.14929687 66.21011719 23.83984375 65.25585938 C22.13571104 60.08907402 20.23167247 55.13967436 17.96435547 50.19604492 C16.30672142 46.42125549 15.01184101 42.52648985 13.6875 38.625 C11.02351959 30.88853887 8.26283488 23.19581045 5.3972168 15.53173828 C3.48240921 10.38943833 1.71205443 5.21351514 0 0 Z " fill="#373737" transform="translate(1138,502)"/>
<path d="M0 0 C4.9927217 4.08495412 8.83222874 9.56057563 10 16 C10.63565298 25.44100987 10.59081764 33.47419581 6 42 C5.54625 42.94875 5.0925 43.8975 4.625 44.875 C1.81972504 48.54343649 -1.00087945 50.55065639 -5.5546875 51.57421875 C-11.58094787 52.3504545 -16.76622496 52.32849729 -22 49 C-27.08126599 44.72711724 -29.95384631 39.52102469 -31 33 C-31.24383619 29.97817296 -31.33611416 26.96843495 -31.375 23.9375 C-31.38901855 23.18170654 -31.40303711 22.42591309 -31.41748047 21.6472168 C-31.35014484 13.70938194 -29.07987066 7.3294342 -23.66796875 1.4765625 C-16.60132431 -4.77915553 -7.87581216 -4.13729373 0 0 Z " fill="#FCFCFC" transform="translate(652,517)"/>
<path d="M0 0 C3.81762192 2.18260001 6.78767707 4.78053649 8.20776367 9.07470703 C9.19210591 14.35409904 8.89690949 19.83496464 8.9375 25.1875 C8.96650391 26.45464844 8.99550781 27.72179687 9.02539062 29.02734375 C9.10443269 40.59180523 9.10443269 40.59180523 4.625 45.3125 C0.10176055 49.86820289 -3.2346918 51.48639742 -9.625 51.625 C-15.0820896 51.57686691 -18.28042242 51.19709924 -22.375 47.3125 C-27.90376298 41.62577236 -29.74760922 34.96826564 -29.78515625 27.24609375 C-29.77355469 26.44300781 -29.76195312 25.63992188 -29.75 24.8125 C-29.76160156 24.00941406 -29.77320313 23.20632813 -29.78515625 22.37890625 C-29.75182386 15.52354407 -28.31028826 9.59434101 -24.125 4 C-17.49299373 -2.48127885 -8.40927717 -3.85229457 0 0 Z " fill="#FCFCFC" transform="translate(812.375,516.6875)"/>
<path d="M0 0 C0 5.28 0 10.56 0 16 C-2.31 16.04125 -4.62 16.0825 -7 16.125 C-12.86266864 16.40158863 -16.96567377 17.3670181 -21.484375 21.234375 C-24.80823085 25.10649573 -26.36998976 28.21315863 -26.43237305 33.34106445 C-26.45216721 34.3817659 -26.47196136 35.42246735 -26.49235535 36.4947052 C-26.50194023 38.16215034 -26.50194023 38.16215034 -26.51171875 39.86328125 C-26.52966995 41.01040085 -26.54762115 42.15752045 -26.56611633 43.33940125 C-26.620224 46.99706364 -26.65411751 50.65459547 -26.6875 54.3125 C-26.72067256 56.79494004 -26.75516215 59.27736286 -26.79101562 61.75976562 C-26.87595122 67.83974958 -26.94276095 73.91969477 -27 80 C-32.28 80 -37.56 80 -43 80 C-43 53.93 -43 27.86 -43 1 C-37.72 1 -32.44 1 -27 1 C-26.67 4.3 -26.34 7.6 -26 11 C-24.453125 9.1128125 -24.453125 9.1128125 -22.875 7.1875 C-15.89261848 -0.63997135 -10.16954417 -0.31131258 0 0 Z " fill="#363636" transform="translate(974,501)"/>
<path d="M0 0 C1.03162406 12.53232194 1.03162406 12.53232194 -2.5 17.5625 C-6.57601561 22.05656849 -10.7225239 24.59952188 -16.78125 25.33984375 C-21.86527847 25.51067804 -26.06060243 25.57007905 -30 22 C-32.92464474 18.47025634 -33.55877461 15.38955895 -33.33203125 10.921875 C-32.74947755 7.54991714 -31.59265327 6.22227423 -29 4 C-20.3288451 -1.66317397 -9.89098854 -0.36558069 0 0 Z " fill="#F7F7F7" transform="translate(1117,544)"/>
<path d="M0 0 C0.845625 0.7425 1.69125 1.485 2.5625 2.25 C3.305 2.86875 4.0475 3.4875 4.8125 4.125 C8.52181545 8.62916876 8.5625 12.47468074 8.5625 18.25 C-3.9775 18.25 -16.5175 18.25 -29.4375 18.25 C-27.44687751 9.2921988 -26.00653746 4.35910028 -18.4375 -0.75 C-12.40487082 -2.69183343 -5.64473391 -2.87368272 0 0 Z " fill="#F6F6F6" transform="translate(1258.4375,515.75)"/>
<path d="M0 0 C4.57961111 3.35093496 8.0426917 7.34842437 9.5625 12.875 C9.5625 14.855 9.5625 16.835 9.5625 18.875 C-2.9775 18.875 -15.5175 18.875 -28.4375 18.875 C-27.27873556 9.60488451 -25.27836717 6.53296873 -18.8125 0.375 C-12.7352554 -2.3259976 -6.2687045 -2.05157602 0 0 Z " fill="#F6F6F6" transform="translate(893.4375,515.125)"/>
<path d="M0 0 C1.051875 0.12375 2.10375 0.2475 3.1875 0.375 C3.1875 0.705 3.1875 1.035 3.1875 1.375 C1.82625 1.74625 1.82625 1.74625 0.4375 2.125 C-2.91601489 3.41481342 -4.48958236 4.69471042 -6.8125 7.375 C-7.4725 7.045 -8.1325 6.715 -8.8125 6.375 C-4.75096154 0.46730769 -4.75096154 0.46730769 0 0 Z " fill="#585958" transform="translate(907.8125,557.625)"/>
</svg>
